<?xml version="1.0" encoding="UTF-8" standalone="no"?>
<!-- Created with Inkscape (http://www.inkscape.org/) -->

<svg
   xmlns:dc="http://purl.org/dc/elements/1.1/"
   xmlns:cc="http://creativecommons.org/ns#"
   xmlns:rdf="http://www.w3.org/1999/02/22-rdf-syntax-ns#"
   xmlns:svg="http://www.w3.org/2000/svg"
   xmlns="http://www.w3.org/2000/svg"
   xmlns:sodipodi="http://sodipodi.sourceforge.net/DTD/sodipodi-0.dtd"
   xmlns:inkscape="http://www.inkscape.org/namespaces/inkscape"
   width="432.63055"
   height="92.52729"
   id="svg4901"
   version="1.1"
   inkscape:version="0.48.2 r9819"
   sodipodi:docname="isolator-logo-concept.svg">
  <defs
     id="defs4903" />
  <sodipodi:namedview
     id="base"
     pagecolor="#ffffff"
     bordercolor="#666666"
     borderopacity="1.0"
     inkscape:pageopacity="0.0"
     inkscape:pageshadow="2"
     inkscape:zoom="1.0624279"
     inkscape:cx="89.861764"
     inkscape:cy="81.727066"
     inkscape:document-units="px"
     inkscape:current-layer="g5460"
     showgrid="false"
     fit-margin-top="5"
     fit-margin-left="5"
     fit-margin-right="5"
     fit-margin-bottom="5"
     inkscape:window-width="1440"
     inkscape:window-height="852"
     inkscape:window-x="0"
     inkscape:window-y="0"
     inkscape:window-maximized="1">
    <inkscape:grid
       type="xygrid"
       id="grid5425"
       empspacing="5"
       visible="true"
       enabled="true"
       snapvisiblegridlinesonly="true" />
  </sodipodi:namedview>
  <metadata
     id="metadata4906">
    <rdf:RDF>
      <cc:Work
         rdf:about="">
        <dc:format>image/svg+xml</dc:format>
        <dc:type
           rdf:resource="http://purl.org/dc/dcmitype/StillImage" />
        <dc:title></dc:title>
      </cc:Work>
    </rdf:RDF>
  </metadata>
  <g
     inkscape:label="Layer 1"
     inkscape:groupmode="layer"
     id="layer1"
     transform="translate(-107.84454,-217.88742)">
    <g
       style="font-size:36.76703262px;font-style:normal;font-variant:normal;font-weight:normal;font-stretch:normal;line-height:125%;letter-spacing:0px;word-spacing:0px;fill:#605c60;fill-opacity:1;stroke:none;font-family:PT Sans;-inkscape-font-specification:PT Sans"
       id="text4909"
       transform="matrix(3.1525233,0,0,3.1525233,-242.9005,-479.77036)">
      <path
         d="m 141.91748,222.88742 3.05166,0 0,25.73692 -3.05166,0 0,-25.73692"
         style="letter-spacing:-1.65999997px;fill:#605c60;fill-opacity:1;stroke:none;-inkscape-font-specification:PT Sans"
         id="path5470"
         inkscape:connector-curvature="0" />
      <path
         d="m 158.05329,243.62403 c -1e-5,-0.73534 -0.22061,-1.31135 -0.6618,-1.72805 -0.44122,-0.41669 -0.99272,-0.75985 -1.65452,-1.02948 -0.6373,-0.29413 -1.34813,-0.56375 -2.13249,-0.80887 -0.75985,-0.26962 -1.47068,-0.60052 -2.13248,-0.99271 -0.6373,-0.41669 -1.17655,-0.94368 -1.61775,-1.58099 -0.44121,-0.63728 -0.66181,-1.49518 -0.66181,-2.57369 0,-1.7648 0.50248,-3.05165 1.50745,-3.86054 1.00496,-0.83337 2.4021,-1.25006 4.19144,-1.25008 1.3236,2e-5 2.42661,0.12258 3.30903,0.36767 0.90691,0.22062 1.69127,0.49025 2.35309,0.80888 l -0.69857,2.42662 c -0.56377,-0.26961 -1.25009,-0.50246 -2.05895,-0.69857 -0.78438,-0.22059 -1.63002,-0.33089 -2.53693,-0.3309 -1.07851,1e-5 -1.87512,0.18385 -2.38986,0.5515 -0.49023,0.36769 -0.73534,1.00498 -0.73534,1.91189 0,0.63731 0.2206,1.13979 0.66181,1.50744 0.4412,0.34318 0.98045,0.66182 1.61775,0.95595 0.6618,0.26963 1.37263,0.53926 2.13249,0.80887 0.78435,0.26964 1.49518,0.62505 2.13248,1.06625 0.6618,0.44121 1.2133,1.00497 1.65452,1.69128 0.44119,0.66181 0.66179,1.54422 0.66181,2.64723 -2e-5,0.78436 -0.13483,1.5197 -0.40444,2.20602 -0.24513,0.68632 -0.63731,1.27459 -1.17655,1.76482 -0.53926,0.49022 -1.21332,0.87015 -2.02218,1.13977 -0.78437,0.29414 -1.71581,0.44121 -2.7943,0.44121 -1.39715,0 -2.58595,-0.13481 -3.5664,-0.40444 -0.98046,-0.26962 -1.80159,-0.58827 -2.46339,-0.95594 l 0.88241,-2.50016 c 0.56376,0.31865 1.2991,0.61279 2.20602,0.88241 0.90692,0.26963 1.82609,0.40444 2.75753,0.40444 1.05398,0 1.92413,-0.20835 2.61046,-0.62504 0.6863,-0.41669 1.02946,-1.16429 1.02947,-2.24279"
         style="letter-spacing:-1.65999997px;fill:#605c60;fill-opacity:1;stroke:none;-inkscape-font-specification:PT Sans"
         id="path5472"
         inkscape:connector-curvature="0" />
      <path
         d="m 162.78616,239.43259 c 0,-3.11293 0.68632,-5.49053 2.05896,-7.13281 1.39714,-1.66675 3.39481,-2.50014 5.99302,-2.50016 1.37263,2e-5 2.56143,0.23288 3.5664,0.69858 1.02947,0.44122 1.87511,1.09077 2.53693,1.94865 0.66179,0.8334 1.15202,1.85062 1.47068,3.05166 0.31863,1.17656 0.47795,2.48792 0.47797,3.93408 -2e-5,3.11294 -0.69859,5.5028 -2.09572,7.16957 -1.37265,1.64226 -3.35807,2.46339 -5.95626,2.46339 -1.37264,0 -2.5737,-0.2206 -3.60317,-0.66181 -1.00497,-0.46571 -1.83835,-1.11526 -2.50016,-1.94865 -0.66181,-0.8579 -1.15203,-1.87512 -1.47068,-3.05166 -0.31865,-1.20105 -0.47797,-2.52467 -0.47797,-3.97084 m 3.05167,0 c -1e-5,0.93144 0.0858,1.8261 0.25736,2.68399 0.19609,0.8579 0.49023,1.6055 0.88241,2.24279 0.39218,0.6373 0.90692,1.15203 1.54422,1.54421 0.63729,0.39219 1.40939,0.58828 2.31632,0.58828 3.33353,0.0245 5.0003,-2.32858 5.00032,-7.05927 -2e-5,-0.95594 -0.0981,-1.86286 -0.29414,-2.72076 -0.17159,-0.85789 -0.45347,-1.60548 -0.84564,-2.24279 -0.39219,-0.63728 -0.90693,-1.13977 -1.54422,-1.50745 -0.6373,-0.39217 -1.40941,-0.58826 -2.31632,-0.58827 -3.33355,-0.0245 -5.00032,2.32859 -5.00031,7.05927"
         style="letter-spacing:-1.65999997px;fill:#605c60;fill-opacity:1;stroke:none;-inkscape-font-specification:PT Sans"
         id="path5474"
         inkscape:connector-curvature="0" />
      <path
         d="m 185.10401,244.102 c 0,0.8579 0.14707,1.47068 0.44121,1.83835 0.29413,0.36767 0.71082,0.55151 1.25008,0.55151 0.31864,0 0.6618,-0.0245 1.02947,-0.0735 0.36767,-0.049 0.78436,-0.15932 1.25008,-0.3309 l 0.33091,2.31632 c -0.39219,0.19609 -0.9437,0.35542 -1.65452,0.47797 -0.68633,0.12256 -1.28685,0.18384 -1.80158,0.18384 -1.10302,0 -2.00994,-0.30639 -2.72076,-0.91918 -0.71084,-0.63729 -1.06625,-1.70353 -1.06625,-3.19873 l 0,-22.06022 2.94136,0 0,21.21458"
         style="letter-spacing:-1.65999997px;fill:#605c60;fill-opacity:1;stroke:none;-inkscape-font-specification:PT Sans"
         id="path5476"
         inkscape:connector-curvature="0" />
      <path
         d="m 192.3092,231.60121 c 0.93143,-0.56375 2.00993,-0.98044 3.2355,-1.25008 1.25007,-0.26961 2.54917,-0.40442 3.89731,-0.40444 1.27458,2e-5 2.2918,0.1716 3.05166,0.51474 0.78435,0.34318 1.37262,0.79664 1.76482,1.36038 0.41668,0.53927 0.6863,1.13979 0.80887,1.80158 0.14706,0.66183 0.22059,1.32363 0.22061,1.98542 -2e-5,1.4707 -0.0368,2.90461 -0.11031,4.30175 -0.0735,1.39715 -0.11031,2.72076 -0.1103,3.97084 -1e-5,0.90692 0.0368,1.76482 0.1103,2.57369 0.0735,0.80888 0.20834,1.55647 0.40444,2.24279 l -2.16925,0 -0.77211,-2.57369 -0.18384,0 c -0.22061,0.34316 -0.50249,0.68632 -0.84564,1.02947 -0.31866,0.31865 -0.71084,0.61279 -1.17654,0.88241 -0.46573,0.24512 -1.00498,0.45346 -1.61775,0.62504 -0.61279,0.17158 -1.31137,0.25737 -2.09572,0.25737 -0.78437,0 -1.51971,-0.12256 -2.20602,-0.36767 -0.66182,-0.24511 -1.23783,-0.58827 -1.72806,-1.02948 -0.49023,-0.46571 -0.88241,-1.01722 -1.17654,-1.65451 -0.26963,-0.6373 -0.40444,-1.36038 -0.40444,-2.16926 0,-1.07849 0.2206,-1.97316 0.66181,-2.68399 0.4412,-0.73533 1.05398,-1.31135 1.83835,-1.72805 0.80887,-0.4412 1.76481,-0.74759 2.86783,-0.91918 1.12751,-0.19608 2.36534,-0.29412 3.71347,-0.29413 0.34315,10e-6 0.67405,10e-6 0.99271,0 0.34315,10e-6 0.6863,0.0245 1.02948,0.0735 0.0735,-0.73533 0.11028,-1.39714 0.1103,-1.98542 -2e-5,-1.34811 -0.26964,-2.2918 -0.80888,-2.83106 -0.53926,-0.53924 -1.51971,-0.80886 -2.94136,-0.80888 -0.4167,2e-5 -0.87016,0.0368 -1.36038,0.1103 -0.46572,0.049 -0.95595,0.13483 -1.47068,0.25737 -0.49023,0.0981 -0.96821,0.23288 -1.43392,0.40444 -0.4412,0.14708 -0.83339,0.31866 -1.17654,0.51474 l -0.91918,-2.20602 m 5.22092,14.74358 c 0.68631,0 1.29909,-0.0858 1.83835,-0.25737 0.53924,-0.19609 1.00496,-0.42895 1.39715,-0.69857 0.39217,-0.29414 0.71082,-0.61279 0.95594,-0.95595 0.26962,-0.34315 0.46571,-0.67406 0.58828,-0.99271 l 0,-3.05166 c -0.34318,-0.0245 -0.69859,-0.0368 -1.06625,-0.0368 -0.34317,-0.0245 -0.68633,-0.0368 -1.02947,-0.0368 -0.75987,1e-5 -1.50746,0.049 -2.24279,0.14707 -0.71084,0.0735 -1.34814,0.23287 -1.91189,0.47797 -0.53926,0.22061 -0.98046,0.53926 -1.32361,0.95595 -0.31866,0.39218 -0.47798,0.89467 -0.47797,1.50745 -1e-5,0.8579 0.30638,1.56873 0.91917,2.13248 0.61278,0.53926 1.39714,0.80888 2.35309,0.80888"
         style="letter-spacing:-1.65999997px;fill:#605c60;fill-opacity:1;stroke:none;-inkscape-font-specification:PT Sans"
         id="path5478"
         inkscape:connector-curvature="0" />
      <path
         d="m 206.75661,230.24083 2.86783,0 0,-3.63994 2.94136,-0.84564 0,4.48558 5.00032,0 0,2.57369 -5.00032,0 0,10.18447 c 0,1.27459 0.15932,2.18151 0.47797,2.72076 0.31864,0.51474 0.85789,0.77211 1.61775,0.77211 0.63729,0 1.17654,-0.0613 1.61775,-0.18384 0.4412,-0.14706 0.93142,-0.3309 1.47068,-0.5515 l 0.66181,2.24278 c -0.66182,0.31865 -1.3849,0.57602 -2.16926,0.77211 -0.78437,0.19609 -1.63001,0.29414 -2.53692,0.29414 -1.4952,0 -2.54919,-0.41669 -3.16197,-1.25008 -0.61278,-0.8579 -0.91917,-2.27955 -0.91917,-4.26498 l 0,-10.73597 -2.86783,0 0,-2.57369"
         style="letter-spacing:-1.65999997px;fill:#605c60;fill-opacity:1;stroke:none;-inkscape-font-specification:PT Sans"
         id="path5480"
         inkscape:connector-curvature="0" />
      <path
         d="m 218.55794,239.43259 c 0,-3.11293 0.68632,-5.49053 2.05895,-7.13281 1.39715,-1.66675 3.39482,-2.50014 5.99303,-2.50016 1.37262,2e-5 2.56142,0.23288 3.5664,0.69858 1.02946,0.44122 1.87511,1.09077 2.53693,1.94865 0.66179,0.8334 1.15201,1.85062 1.47068,3.05166 0.31863,1.17656 0.47795,2.48792 0.47797,3.93408 -2e-5,3.11294 -0.69859,5.5028 -2.09572,7.16957 -1.37265,1.64226 -3.35807,2.46339 -5.95626,2.46339 -1.37264,0 -2.5737,-0.2206 -3.60317,-0.66181 -1.00497,-0.46571 -1.83836,-1.11526 -2.50016,-1.94865 -0.66181,-0.8579 -1.15203,-1.87512 -1.47068,-3.05166 -0.31865,-1.20105 -0.47797,-2.52467 -0.47797,-3.97084 m 3.05166,0 c 0,0.93144 0.0858,1.8261 0.25737,2.68399 0.19609,0.8579 0.49022,1.6055 0.88241,2.24279 0.39218,0.6373 0.90691,1.15203 1.54422,1.54421 0.63728,0.39219 1.40939,0.58828 2.31632,0.58828 3.33353,0.0245 5.0003,-2.32858 5.00032,-7.05927 -2e-5,-0.95594 -0.0981,-1.86286 -0.29414,-2.72076 -0.17159,-0.85789 -0.45347,-1.60548 -0.84564,-2.24279 -0.3922,-0.63728 -0.90693,-1.13977 -1.54422,-1.50745 -0.6373,-0.39217 -1.40941,-0.58826 -2.31632,-0.58827 -3.33355,-0.0245 -5.00032,2.32859 -5.00032,7.05927"
         style="letter-spacing:-1.65999997px;fill:#605c60;fill-opacity:1;stroke:none;-inkscape-font-specification:PT Sans"
         id="path5482"
         inkscape:connector-curvature="0" />
      <path
         d="m 246.28054,233.07189 c -0.73535,-0.2451 -1.43392,-0.36766 -2.09572,-0.36767 -1.054,1e-5 -1.88738,0.29415 -2.50016,0.88241 -0.61279,0.56377 -0.99271,1.28686 -1.13977,2.16925 l 0,12.86846 -2.94137,0 0,-18.38351 2.05896,0 0.5515,2.24279 0.14707,0 c 0.46571,-0.83337 1.01721,-1.47067 1.65452,-1.91189 0.6618,-0.4657 1.49518,-0.69855 2.50015,-0.69857 0.71082,2e-5 1.50744,0.12257 2.38986,0.36767 l -0.62504,2.83106"
         style="letter-spacing:-1.65999997px;fill:#605c60;fill-opacity:1;stroke:none;-inkscape-font-specification:PT Sans"
         id="path5484"
         inkscape:connector-curvature="0" />
    </g>
    <g
       id="g5460"
       transform="matrix(1.5754452,0,0,1.5754452,-60.728009,-130.96696)"
       style="stroke-width:0.75;stroke-miterlimit:4;stroke-dasharray:none">
      <path
         transform="matrix(-4.8130305,0,0,4.8130305,567.41155,-819.92817)"
         sodipodi:end="1.5707963"
         sodipodi:start="0"
         d="m 95,217.36218 c 0,5.52285 -4.477152,10 -10,10 l 0,-10 z"
         sodipodi:ry="10"
         sodipodi:rx="10"
         sodipodi:cy="217.36218"
         sodipodi:cx="85"
         id="path5427"
         style="fill:#e6e6e6;fill-opacity:1;stroke:none"
         sodipodi:type="arc" />
      <path
         sodipodi:end="1.5707963"
         sodipodi:start="0"
         sodipodi:type="arc"
         style="fill:#4eba14;fill-opacity:1;stroke:none"
         id="path5429"
         sodipodi:cx="85"
         sodipodi:cy="217.36218"
         sodipodi:rx="8.1690989"
         sodipodi:ry="8.1690989"
         d="m 93.169099,217.36218 c 0,4.51167 -3.65743,8.1691 -8.169099,8.1691 l 0,-8.1691 z"
         transform="matrix(-4.7134015,0,0,4.7134015,558.94305,-798.27253)" />
      <path
         transform="matrix(-3.5350501,0,0,3.5350514,458.78316,-542.14376)"
         sodipodi:end="1.5707963"
         sodipodi:start="0"
         d="m 93.169099,217.36218 c 0,4.51167 -3.65743,8.1691 -8.169099,8.1691 l 0,-8.1691 z"
         sodipodi:ry="8.1690989"
         sodipodi:rx="8.1690989"
         sodipodi:cy="217.36218"
         sodipodi:cx="85"
         id="path5431"
         style="fill:#eff11f;fill-opacity:1;stroke:none"
         sodipodi:type="arc" />
      <path
         sodipodi:type="arc"
         style="fill:#e3737c;fill-opacity:1;stroke:none"
         id="path5435"
         sodipodi:cx="85"
         sodipodi:cy="217.36218"
         sodipodi:rx="8.1690989"
         sodipodi:ry="8.1690989"
         d="m 93.169099,217.36218 c 0,4.51167 -3.65743,8.1691 -8.169099,8.1691 l 0,-8.1691 z"
         sodipodi:start="0"
         sodipodi:end="1.5707963"
         transform="matrix(-2.356699,0,0,2.356701,358.62334,-286.01499)" />
      <path
         transform="matrix(-1.3427169,0,0,1.3210016,273.44461,-61.808685)"
         sodipodi:end="1.5707963"
         sodipodi:start="0"
         d="m 93.169099,217.36218 c 0,4.51167 -3.65743,8.1691 -8.169099,8.1691 l 0,-8.1691 z"
         sodipodi:ry="8.1690989"
         sodipodi:rx="8.1690989"
         sodipodi:cy="217.36218"
         sodipodi:cx="85"
         id="path5437"
         style="fill:#ffffff;fill-opacity:1;stroke:none"
         sodipodi:type="arc" />
    </g>
  </g>
</svg>
